<?xml version="1.0" encoding="utf-8"?>
<!-- Generator: Adobe Illustrator 26.0.1, SVG Export Plug-In . SVG Version: 6.00 Build 0)  -->
<svg version="1.1" id="Capa_1" xmlns="http://www.w3.org/2000/svg" xmlns:xlink="http://www.w3.org/1999/xlink" x="0px" y="0px"
	 viewBox="0 0 522.5 522.4" style="enable-background:new 0 0 522.5 522.4;" xml:space="preserve">
<style type="text/css">
	.st0{fill:#462B30;}
	.st1{fill:#F4F4F4;}
</style>
<circle class="st0" cx="262.1" cy="261.2" r="261.2"/>
<g>
	<path class="st1" d="M257,13.1c136.1-2.6,248.8,105.2,252.3,241.2c3.6,140.3-106.9,251.1-240.5,254.9c-142,4-254.7-109.6-255.7-246
		C12.1,126.1,122,15,257,13.1z M261.3,500.8c133.9,0.1,242.5-109.6,240.3-244.4C499.4,124.9,392,20.4,261.7,20.1
		C130.7,19.7,18.3,126.4,21,265.4C23.6,398.3,132.2,500.9,261.3,500.8L261.3,500.8z"/>
	<path class="st1" d="M261.7,29c128,0.2,231.1,104,231,232.4c-0.2,127.1-104.2,230.7-231.5,230.5c-127.8,0-231.4-103.5-231.4-231.3
		c0-0.4,0-0.8,0-1.2C30.1,132,134,28.7,261.7,29z M404.1,259.1c0.1-78.6-63.6-142.8-142.7-142.7c-80.3,0.1-140.6,64.1-143.1,138.6
		c-2.8,82.5,61.8,147.3,139.2,149C340.3,406,405.5,338.7,404.1,259.1z M150.9,144.7c-1-0.9-1.9-1.8-2.9-2.5
		c-11.6-8.8-23.2-17.6-34.8-26.4c-7.7-5.8-7.8-5.8-13.6,1.9c-6.6,8.8-6.6,8.8,2,15.5c7,5.5,7,5.4,0.9,12.3c-1.4,1.7-2.5,2-4.3,0.5
		c-3.1-2.5-6.4-4.7-9.4-7.2c-2.3-1.9-3.8-2.2-5.6,0.6c-2.4,3.6-4.9,7-7.8,10.2c-2.3,2.6-1.7,4.1,0.9,6c11.8,8.7,23.6,17.7,35.3,26.5
		c7.1,5.4,7.1,5.4,12.6-1.9c7.1-9.3,7.1-9.3-2.2-16.3c-7-5.3-6.9-5.2-1.6-12.2c1.9-2.5,3.2-2.2,5.3-0.5c3.3,2.7,6.9,5.1,10.2,7.8
		c2.2,1.8,3.5,1.3,5-0.8c2.7-3.9,5.7-7.6,8.6-11.4C150,146.3,150.4,145.6,150.9,144.7z M301.8,49.2c-17.5,0.4-30.2,13.9-29.7,31.5
		c0.5,16.5,14.9,29.3,32.6,28.8c16.3-0.4,29.1-14.2,28.8-31C333.2,62,318.9,48.8,301.8,49.2z M369.7,139.7
		c16.7-0.1,30.1-13.6,30.1-30.3c-0.1-16.3-14.7-30.7-31.2-30.8c-16.3-0.1-30.2,13.9-30.1,30.4C338.6,125.6,353,139.7,369.7,139.7
		L369.7,139.7z M188.8,460.6c16.7-0.1,30.1-13.7,30-30.4c-0.1-16.5-14.4-30.1-31.6-30.2c-16.3-0.1-30,13.9-30,30.5
		C157.3,447,171.7,460.7,188.8,460.6z M234.3,89.1l1-0.3c2.9,4.1,5.9,8.1,8.8,12.3c1.3,1.8,2.7,2.8,5.1,2.5c5.3-0.9,10.6-1.7,16-2.3
		c3-0.4,3.7-1.2,1.5-3.7c-4.5-4.9-8.7-10-13.2-15c-1.4-1.6-2.4-2.7,0.3-4.3c5.1-3,6.5-7.9,6.1-13.5c-0.9-11.3-8.2-17.7-20.1-17.5
		c-9.5,0.2-18.8,2.4-28.2,3.4c-2.6,0.3-3,1.6-2.7,3.9c2.4,16.4,4.8,32.9,6.9,49.4c0.4,3.1,1.6,4.1,4.6,3.6c4.2-0.8,8.4-1.4,12.7-1.8
		c2.7-0.3,3.5-1.5,3.1-4.1C235.4,97.5,234.9,93.3,234.3,89.1z M406.4,181.2c15.6,0.1,23.5-11.4,18.2-24.5c-0.5-1-0.9-2.1-1.2-3.1
		c-0.5-2.3-2.9-5.4,0.3-6.6c2.9-1.1,3.9,2.5,5.1,4.6c0.2,0.4,0.3,0.9,0.5,1.3c1.5,2.4-0.4,6.7,2.6,7.5c2.6,0.7,5.8-0.9,8.7-1.5
		c1-0.2,1.8-0.5,2.8-0.6c2.5-0.3,3.1-1.7,2.6-4c-1.8-9.4-6-17.3-13.8-23.1c-7.3-5.4-17.2-5.2-24.3,0.5c-6.2,4.8-7.3,11.2-3.8,20.6
		c0.7,1.8,1.3,3.6,1.8,5.4c0.4,1.1,0,2.3-1,3c-1.3,0.9-2.5,0.1-3.4-0.8c-1.9-1.8-2.7-4.2-3.6-6.7c-1.1-3,0.7-7.7-2.4-8.9
		c-2.6-0.9-6.4,1-9.6,1.7c-0.8,0.2-1.5,0.4-2.3,0.5c-3.2,0.3-3.7,2.1-3.2,4.9c1.1,7.2,4.1,14.1,8.6,19.8
		C393.9,177.2,399.9,181,406.4,181.2z M398.5,426.7c1.3-0.2,2.1-1.3,3-2.1c5.8-5.1,11.6-10.3,17.4-15.5c9.3-8.3,9.2-8.2,0.2-17.1
		c-1.8-1.8-2.9-1.7-4.7-0.1c-3,2.8-6.2,5.4-9.2,8.2c-1.5,1.4-2.5,1.3-3.9-0.2c-3.3-3.4,0.7-4.4,2.1-5.7c8.5-8.1,8.5-8,0.5-16.1
		c-1.7-1.7-2.9-2.1-4.6-0.2c-2.5,2.5-5.3,4.5-7.8,6.9c-1.6,1.5-2.5,1.1-3.9-0.3c-1.3-1.5-0.9-2.5,0.3-3.6c0.9-0.8,1.8-1.7,2.8-2.6
		c9.5-8.3,9.5-8.2,0.2-17.3c-1.7-1.7-2.7-1.6-4.3-0.1c-8,7.2-16,14.4-24.1,21.5c-1.9,1.7-1.7,2.8-0.1,4.6
		c11.4,12.6,22.6,25.2,33.9,37.8C396.9,425.7,397.4,426.6,398.5,426.7L398.5,426.7z M157.7,140.4c0.7-0.4,1.6-0.9,2.5-1.6
		c6.3-4.3,12.5-8.6,18.8-12.9c10.5-7.1,10.4-7,3-17.1c-1.7-2.3-2.9-2.2-4.9-0.7c-3.2,2.3-6.6,4.4-9.7,6.7c-1.8,1.3-2.8,1.3-4.2-0.6
		c-1.4-1.9-0.9-3,1-4.2c2.8-1.8,5.5-3.7,8.3-5.6c1.6-1.1,3-2.4,1.1-4.1c-3-2.8-2.9-8.6-8.4-8.9c-0.9,0-1.8,1.1-2.8,1.8
		c-2.3,1.6-4.8,3.1-7,4.8c-1.5,1.1-2.4,0.9-3.5-0.5s-1.2-2.8,0.6-3.9c1.1-0.7,2.1-1.4,3.2-2.1c10-6.8,10-6.8,2.7-16.5
		c-0.1-0.1-0.2-0.2-0.3-0.4c-1.2-2.3-2.7-2.1-4.6-0.7c-8.7,6.1-17.4,12.1-26.2,18c-2,1.4-2.3,2.5-0.9,4.5
		c9.6,13.9,19.2,27.8,28.8,41.8C155.6,139.2,156,140.3,157.7,140.4z M358.5,433.3c-0.8,0.3-1.7-0.1-2.1-0.8
		c-2.7-3.4-0.3-4.4,2.4-5.8c10.6-5.4,10.6-5.5,5.2-15.6c-1.1-2.2-2.1-2.8-4.4-1.5c-2.8,1.6-6,2.9-8.9,4.5c-1.7,0.9-3,1.4-4.1-1
		c-1.2-2.5,0.5-3,2-3.8c3.4-1.7,6.8-3.4,10.2-5.1c1.8-0.9,3.1-2.1,1.6-4c-2.7-3.4-1.9-9.1-7.2-10.7c-0.4-0.1-0.9,0.3-1.3,0.5
		c-9.6,4.8-19.2,9.6-28.9,14.4c-2,1-2.4,2-1.4,4.1c7.6,15.1,15.1,30.3,22.6,45.5c1.4,2.8,2.8,2.6,5.2,1.4c7.6-3.9,15.3-7.6,23-11.4
		c8.2-4.1,8.2-4.1,4.3-12.4c-2.9-6-2.9-6-8.8-3C364.5,430.3,361.2,432,358.5,433.3z M106.6,401.8c0.7,12.3,7.6,21.3,19.3,27.1
		c2.7,1.3,4.4,0.8,6.1-1.3c2.9-3.3,5.9-6.6,9-9.8c2-2.1,2.8-3.5-1.1-4.1c-2.2-0.3-4.3-1.1-6.2-2.1c-4.2-2.2-6.9-5.6-6.4-10.7
		c0.7-4.7,4-8.5,8.5-9.9c4.9-1.2,8.6,0.7,11.7,4.3c1.5,1.9,2.5,4,3,6.4c0.6,2.5,1.6,2.9,3.4,0.9c3.3-3.8,6.7-7.7,10-11.4
		c1.3-1.4,1.1-2.7,0.3-4.3c-6-12-21.4-19.1-34.6-15.8S106.2,387.6,106.6,401.8z M313.9,408.4c-1.2,0.2-1.5,0.2-1.8,0.3
		c-10.6,2.1-21.1,4.2-31.7,6.2c-2.7,0.5-2.6,2.1-2.2,4.2c3.3,16.3,6.6,32.6,9.8,48.9c0.6,2.9,1.8,3.6,4.6,2.9c4-1,8-1.8,12.1-2.3
		c3.4-0.5,4.7-1.8,3.7-5.3c-1.1-3.8-1.4-7.8-2.4-11.6c-0.8-3-0.2-4.4,3.1-4.8c3-0.4,5.9-1.2,8.8-1.7c1.8-0.3,2.6-1.1,2.5-3.2
		c-0.6-11.3-1.7-12.2-12.4-10c-0.8,0.1-1.6,0.3-2.3,0.5c-2.3,0.7-3.4,0-4-2.5c-0.6-2.7,0.5-3.4,2.7-3.8c3.6-0.6,7.1-1.5,10.7-2.1
		c2.4-0.4,3.5-1.6,2.6-3.9C316.2,416.3,317.7,411.1,313.9,408.4L313.9,408.4z M232.2,445.1L232.2,445.1c-0.3,7.4-0.7,14.9-1.2,22.3
		c-0.2,2.7,0.6,4.1,3.6,4.2c4.6,0.1,9.2,0.4,13.7,0.7c2.2,0.2,3.2-0.5,3.2-2.9c0.1-4.1,0.7-8.2,0.7-12.4c0-3.6,1-5.3,5-4.7
		c2.6,0.4,5.4,0.2,8.1,0.4c2.1,0.2,3.3-0.4,3.4-2.7c0.1-2.8,0.3-5.7,0.6-8.5c0.2-2.3-0.6-3.6-3.1-3.6c-3,0-6-0.3-9-0.5
		c-2.1-0.1-3.7-0.3-3.6-3.1c0.1-2.8,1.4-3.6,4-3.3c3.6,0.3,7.3,0.5,10.9,0.8c2.6,0.2,3.5-1.3,3.1-3.5c-0.6-4.1,3.1-8.5-1.3-12.2
		c-0.4-0.3-1.2-0.2-1.9-0.2c-10.3-0.6-20.5-1.1-30.8-1.7c-2.7-0.2-3.6,0.6-3.7,3.4C233.5,426.8,232.8,436,232.2,445.1L232.2,445.1z
		 M470.6,207.9c-0.3-0.9-0.8-2.3-1.2-3.7c-2.9-8-5.7-16.1-8.5-24.1c-3.9-11.3-3.9-11.3-15.1-7.3c-8,2.9-7,2-4.5,9
		c1.2,3.3,0.6,4.6-2.8,5.7c-9.6,3.1-19,6.8-28.6,10c-2.6,0.9-3.1,2.1-2.2,4.5c1.6,3.8,2.9,7.7,4.1,11.6c1,3.7,2.6,4.7,6.4,3.2
		c8.8-3.4,18-6.1,26.7-9.7c4.2-1.7,5.8-0.6,6.5,3.4c0.2,1.1,0.8,2.1,1.1,3.1c0.6,1.9,1.7,2.5,3.6,1.8c4.2-1.5,8.3-2.9,12.5-4.4
		C470,210.5,471.1,209.9,470.6,207.9L470.6,207.9z M81.6,179.7c0.3-2-0.9-2.3-2.2-2.7c-3.7-1.3-7.6-2.3-11.2-3.9
		c-3.2-1.4-4.4-0.4-5.4,2.7c-3.6,11.1-7.3,22.2-11.2,33.2c-1.1,3-0.9,4.6,2.5,5.5c3.5,0.9,7,2.1,10.3,3.5c3,1.3,4.4,0.3,5.1-2.6
		c0.3-1.1,0.8-2.1,1-3.2c0.6-3,1.9-3.7,5-2.6c9.4,3.4,18.9,6.2,28.3,9.7c3.7,1.4,5,0.3,6-3.1c1.1-3.8,2.3-7.6,3.8-11.2
		c1.3-3.1,0.3-4.5-2.8-5.5c-9.2-2.9-18.2-6.2-27.5-9.1c-3.8-1.1-5.6-2.5-3.3-6.5C80.8,182.6,81.3,181.2,81.6,179.7z M443.4,323.2
		h9.5c7.2,0,7,0,6.2-7.2c-0.3-2.3-2.4-6.4,0.9-6.9c3.9-0.7,2.6,3.7,3.1,6.1c0.4,1.7,1.1,3,2.9,3.4c1.4,0.3,2.4-0.4,3.2-1.6
		c3.6-5.6-0.2-14.2-6.7-14.9c-2.7-0.3-3.7-1.1-3.1-3.8c0.2-1.1,0.1-2.2,0.3-3.3c1-4.2-0.9-5.2-4.8-5c-6.2,0.2-12.3,0.1-18.5,0.1
		c-8.5,0-8.5,0-8.3,8.6c0,0.3,0,0.6,0,0.9c0,1-0.1,2-1.3,2.1c-1,0.1-1.9-0.6-2.1-1.5c-0.3-1.5-0.2-3.2-0.5-4.7
		c-0.4-1.7-1.1-3.6-3.3-3.5c-2.2,0.1-3.3,1.7-3.4,3.9c0,2.5,0,5.1,0.2,7.6c0.2,2.7,1.7,4.2,4.4,4.8c7.3,1.6,7.3,1.7,5.9,9
		c-0.1,0.6-0.2,1.2-0.4,1.9c-1,3-0.2,4.4,3.2,4.2C434.8,323,439.1,323.2,443.4,323.2z M78,323.2h6.7c9.8,0,9.9,0,8.5-9.5
		c-0.5-3.6,0.3-5.4,4.2-5.3c2.7,0.1,5.6-0.2,6.5-3.6c0.7-3.3,0.8-6.6,0.3-9.9c-0.1-1.7-1.5-3-3.2-3c-1.9-0.1-2.8,1.4-3.2,2.9
		c-0.2,1.3-0.3,2.5-0.3,3.8c-0.1,1.5-0.6,3.1-2.4,2.9s-1.2-1.9-1.2-3c0-1.4,0.1-2.8,0.4-4.2c0.7-3.4-0.7-4.4-4-4.4
		c-7.9,0.2-15.8,0.3-23.8,0c-4-0.2-5.1,1.3-4.3,5c0.2,0.9,0.1,1.9,0.3,2.8c0.6,3-0.3,4.4-3.6,4.3c-2.3,0-5.1,0.2-6,2.9
		c-1.2,3.6-1.4,7.5-0.5,11.2c0.3,1.5,1.6,2.6,3.1,2.5c1.5,0,2.8-1.1,3-2.6c0.3-1.6,0.5-3.1,0.5-4.7c0-1.4,1.1-2.6,2.6-2.6
		c0.1,0,0.2,0,0.2,0c1.9,0,1.6,1.7,1.5,2.9c-0.3,2.8-0.7,5.6-1.3,8.4c-0.6,2.3,0.2,3.2,2.5,3.2C68.8,323.1,73.4,323.2,78,323.2
		L78,323.2z M443.4,282.2L443.4,282.2c3.9,0,7.9,0.1,11.8,0c1.5,0,3.4,0.7,4.4-0.9c1-1.8,0.1-3.7-1-5.3c-2-3.2-7.2-5.8-9-4.5
		c-5.2,3.7-7.9,3.8-12.3,0.1c-0.6-0.5-1.4-0.6-2.1-0.3c-3.8,0.9-6.6,3-7.8,6.8c-0.9,2.6-0.6,4.3,2.9,4.1
		C434.6,282.1,439,282.2,443.4,282.2z M78.1,282.2L78.1,282.2c4.4,0,8.8,0,13.2,0c1,0,2.5,0.4,2.9-0.9c0.8-2.7-0.5-5-2.3-6.8
		c-2-2-4.7-4.3-7.4-2.9c-6.8,3.5-7.2,3.7-12.9,0c-0.5-0.3-1.1-0.4-1.7-0.3c-4.1,0.9-7.2,3.1-8.3,7.4c-0.6,2.4,0.2,3.6,2.8,3.6
		C69,282.2,73.6,282.2,78.1,282.2L78.1,282.2z M443.7,325.1L443.7,325.1c-4.9,0-9.8,0-14.7,0c-1.6,0-3.4-0.2-3.5,2.1
		c-0.1,2.1,0.7,4.2,2.8,4.2c10,0.2,20,0.2,29.9,0c2.3,0,3.2-1.8,3-4c-0.1-2.2-1.7-2.4-3.4-2.4C453.2,325.2,448.5,325.1,443.7,325.1
		L443.7,325.1z M78,325.1c-4.6,0-9.2,0-13.7,0c-1.9,0-4-0.3-4.1,2.6c-0.1,2.9,1.6,3.9,4.2,3.9c5.5,0,11.1,0,16.6,0
		c3.8,0,7.6,0,11.4,0c2.6-0.1,3.6-1.7,3.6-4c0-2.7-2-2.4-3.7-2.4C87.5,325.1,82.8,325.1,78,325.1L78,325.1z M424.2,279.5
		c-2.5,5.9-1.6,8.4,2.5,8.5c11.2,0.2,22.4,0.2,33.6,0c2.2,0,4.1-1.7,4.1-4c0-0.6-0.1-1.2-0.3-1.7c-0.4-0.9-1.4-1.9-1.9-0.4
		c-1,3-3.1,2.2-5,2.2c-9.2,0.1-18.3,0-27.5,0.1C427.2,284.1,424.8,284.2,424.2,279.5L424.2,279.5z M58.6,279.8c-2,6.4-1,8.2,3.8,8.2
		c10.6,0.1,21.2,0.1,31.8,0c1.6,0,3.3-0.1,4.2-1.7c1-1.7,1.5-4-0.3-5.2c-2-1.3-1.2,1.3-1.9,2.1c-1,1.1-2.3,0.8-3.5,0.8
		c-9.6,0-19.3,0-28.9,0C61.3,284.1,59.4,283.8,58.6,279.8L58.6,279.8z M443.5,272.2c1.2-0.5,3.7,1,3.3-1.9c-0.2-1.7-1.3-3.3-3.4-3.3
		c-2.1,0.1-3.1,1.7-3.3,3.4C439.8,273.3,442.3,271.6,443.5,272.2L443.5,272.2z M78.4,272.2c1.2-0.3,3.2,0.6,3-1.7
		c-0.2-1.8-1.1-3.4-3.2-3.4c-1.8-0.1-3.4,1.4-3.4,3.2c0,0.1,0,0.3,0,0.4C74.9,273.1,77.1,271.8,78.4,272.2L78.4,272.2z"/>
	<path class="st1" d="M385.3,227.9c-4.4-2.4-8.3-5.4-13.1-6.9c-4.8-1.5-7.1,0.2-6.5,5.3c0.7,6,3.9,11,7.4,15.7
		c1.4,2,3.1,3.8,5.1,6.4c-4.2-2.2-7.6-4.2-11.1-5.8c-2.5-1.1-5.3-1.9-7.6,0.2s-1.5,4.9-0.7,7.6c1.4,4.9,4.6,8.9,7.7,12.9
		c-1.2,1-1.8-0.1-2.5-0.5c-3.4-2.1-7.1-3.6-10.6-0.9c-3.5,2.7-4.1,6.9-3,11.2c2.4,8.5,3.5,17.4,3.3,26.3
		c-0.9,23.1-8.1,44.5-18.2,65.3c-1.2-40.8-2-81.5-6.4-123c5.6,3.8,8.8,8.5,12.4,12.8c2.7-4.2,2.7-4.2,10.2-3.5
		c-1.7-3.3-3.5-6.4-4.9-9.6c-4-9.6-1.6-12.9,8.8-12c-2.2-4.5-4.3-8.8-6.4-13.1c-0.3-0.7-0.6-1.5-0.8-2.2c-0.9-3.5-2.7-7.3,0.7-10.2
		c3-2.7,6.3-0.6,9.3,0.6c0.4,0.2,0.9,0.3,2.2,0.7c-2.1-4.1-4.2-7.5-5.7-11.2c-2.3-5.8-7.3-11-4.3-18.1c0.3-0.8-0.7-1.3-1.4-1.6
		c-7.4-3.4-14.7-6.9-22.9-7.3c-2.3-0.1-5-0.5-6.4,2c-1.4,2.5,0.1,4.9,1.3,7.1c2.4,4.3,6.5,7.1,9.8,11.3c-4.1,0.3-7.7-0.8-11.2,0.5
		c-2.1,0.8-2.1-1.5-2.5-2.6c-2.7-7.1-6.2-13.9-10.5-20.1c-10.3-14.4-25-20.3-42.1-21c-14-0.5-27.5,0.8-39.4,9.5
		c-10.1,7.4-16,17.8-20.2,29.3c-1.3,3.7-2.8,5.5-7,4.5c-2-0.5-4.3-0.1-7-0.1c2.8-3.1,5.6-5.8,8-8.7c2.2-2.7,4.9-5.8,3-9.4
		c-2-3.6-5.9-2.3-9.1-1.9c-7.2,0.9-13.6,4-20.1,7.1c-0.9,0.4-2.3,0.8-1.2,2.4c2,3.2,0.3,6.2-0.8,9c-2.4,6.5-5.9,12.6-9.2,18.8
		c1.9,1,3-0.6,4.4-1c6.1-2.1,9.4,0.4,8.6,6.8c-0.8,5.8-3.7,10.7-6.5,15.7c-0.6,1.1-1.2,2.1-1.9,3.3c10.7-0.5,13,3.1,8.6,12.9
		c-1.3,2.8-2.9,5.6-4.6,8.7c3.8,0.4,8.7-2.4,9.7,4.2c4.2-4.8,7.4-9.6,13-13.4c-4,42-4.7,83.3-5.6,124.6c-3.3-4.5-5.1-9.5-7-14.4
		c-6.5-16.8-11.5-33.9-12-52c-0.2-8.5,0.7-17.1,2.7-25.4c0.4-1.5,0.6-3.1,0.7-4.7c0.1-8.1-5.4-11.5-12.6-7.9c-1.2,0.6-2.1,1.9-4,1.7
		c3.2-4.2,6.3-8.2,7.8-13c0.9-2.7,1.8-5.8-0.6-8c-2.2-2.1-5.2-1.1-7.6-0.1c-3.1,1.3-6.1,3.1-10.3,5.3c3.9-5.2,7.2-9.3,9.4-14.1
		c1.3-2.5,2.2-5.3,2.5-8.1c0.3-3.9-2.1-5.8-5.9-4.8c-5.3,1.4-9.5,5-14.6,7.3l4-4.6c3-3.5,5.3-7.5,6.7-11.9c0.7-2.3,1.6-5.5-0.5-6.6
		c-5.2-2.8-2.1-5.4-0.5-8.1c48.9-85.9,168.7-91.8,224.6-11.1c2.7,3.9,4.9,8.1,7.3,12.2c1.4,2.4,3.7,4.7-1.1,6.6
		c-2.6,1-1.6,4.5-1,6.9C377.1,217.8,381.4,222.7,385.3,227.9z"/>
	<path class="st1" d="M219.6,275.7c-2.9,0-5.6-1.5-7.3-3.8c-0.6-0.9-1.5-1.9-0.1-2.9c5.5-3.9,6-10.1,7.2-15.9
		c1.6-7.7,2.1-15.6,4.9-23.1c1.5-4.1,3.7-7.7,8.2-9.2c5.8-1.8,10.5,1.9,8.6,7.5c-3.8,11.6-5.4,23.6-8.4,35.4
		C231,270.7,225.1,275.6,219.6,275.7z"/>
	<path class="st1" d="M287.7,220.4c4.5,0.4,7.5,3.1,9.5,7.2c2.8,5.9,3.8,12.4,4.8,18.8c0.8,5.3,1.5,10.6,3.4,15.7
		c0.8,2.1,1.5,4.4,3.3,5.6c4.2,2.7,1.7,4.5-0.6,6.3c-3.4,2.6-8.1,2.1-12.3-1.1c-3.3-2.4-5.5-5.8-6.3-9.8c-2.5-11.7-4.4-23.5-8.2-35
		C279.8,223.6,282.9,220.3,287.7,220.4z"/>
	<path class="st1" d="M301.1,200.1c-0.1,7.2-4.8,12.8-12,14.4c-6.6,1.5-13.9-1.7-16.4-8.1c-1.5-3.8-3.6-4.7-7.1-4.3
		c-1.6,0.1-3.2,0.1-4.8,0c-5.3-0.4-9.5-0.3-12.2,6.1c-2.6,6.1-10.7,8-17.3,5.7c-6.3-2.2-10.4-8.6-9.8-15.7
		c0.7-6.7,5.6-12.1,12.2-13.3c6.4-1.3,13.7,1.9,16.1,8c1.5,4,3.8,4.8,7.4,4.4c1.7-0.2,3.5-0.2,5.2,0c5.1,0.4,8.9,0.2,11.4-5.9
		c2.5-6,10.2-8.1,16.8-6.1C297,187.3,301.3,193.3,301.1,200.1z M236.6,211.6c6.5,0.1,11.8-5,12-11.5c0.1-6.5-5-11.8-11.5-12
		c-0.2,0-0.4,0-0.6,0c-6.5,0.2-11.5,5.7-11.3,12.2C225.3,206.5,230.3,211.4,236.6,211.6z M286.1,211.6c6.5-0.2,11.6-5.7,11.3-12.1
		c-0.2-6.2-5.3-11.2-11.5-11.3c-6.5-0.1-11.8,5-12,11.5c-0.1,6.5,5,11.8,11.5,12C285.7,211.6,285.9,211.6,286.1,211.6z"/>
	<path class="st1" d="M276.3,223.8c0.2,1.5-0.3,3-1.4,4.1c-3.8,4.2-7.7,8.4-11.3,12.7c-1.9,2.3-3.1,1.7-4.8-0.2
		c-3.7-4.3-7.6-8.5-11.4-12.7c-2-2.1-1.9-4.2,0-6.3c4-4.5,8-8.9,12-13.4c0.8-0.9,1.7-2.1,3.1-0.6c4.5,5.1,9,10.2,13.5,15.3
		C276.2,223,276.4,223.4,276.3,223.8z M271.3,221.2c-3.3-3.7-6-6.7-8.5-9.8c-1.2-1.4-2.1-0.9-3.1,0.2c-2.7,3-5.3,6-8.6,9.6H271.3z"
		/>
	<path class="st1" d="M245.7,321.4c0.6,1.2,1.9,0.8,2.8,1.4c5.3,3.4,5.3,5.5-0.1,8.6l-19.4,11.2c-0.2-1.2-0.7-1.9-0.4-2.3
		c1.9-3.7-0.1-7.3-0.1-11c0.1-4.3,0.1-8.5,0-12.8c0-2.2,0.2-3.9,3-3.2h-0.1c3.5,5,9,6.5,14.4,8.2L245.7,321.4z"/>
	<path class="st1" d="M285.7,181.1c-3.6,0-7.2-0.1-10.9,0s-3.5-2.3-3.3-4.8c0.2-2.3-1.2-5.4,3.1-5.4c7.7,0,15.4,0,23.1,0
		c4.4,0,2.6,3.5,2.8,5.6c0.2,2.1,0.6,4.6-3,4.5C293.5,180.9,289.6,181,285.7,181.1L285.7,181.1z"/>
	<path class="st1" d="M236.3,181.1c-3.6,0-7.3-0.1-10.9,0c-3.3,0.2-3.7-1.8-3.3-4.2c0.3-2.3-1.7-5.9,3.1-5.9c7.6,0,15.2,0,22.8,0
		c4.3,0,3,3.1,3.1,5.4c0.1,2.2,0.5,4.9-3.3,4.8C243.8,181,240.1,181.1,236.3,181.1z"/>
	<path class="st1" d="M273.3,325.4c-0.8-0.6-1-1.8-0.4-2.7c0.1-0.1,0.2-0.3,0.4-0.4l-0.1,0.1c7.3-1.5,13.9-4.2,19.2-9.6l-0.2,0.2
		c1.5,0.4,1.7,1.6,1.7,3c0,5.1,0,10.1,0,15.2c0,1.9,0,3.7-2.8,2.4l-2-1.7c-4.8-3.4-9.9-6-15.8-6.7L273.3,325.4z"/>
	<path class="st1" d="M261.6,330.1c-6.9,0-8.3-1.1-8.2-6.6c0.1-5.2,1.5-6.2,8.6-6.2c6,0,7.5,1.2,7.5,6.4
		C269.5,328.9,268.2,330.1,261.6,330.1z"/>
	<path class="st1" d="M273.3,322.4c-1.6,0-2.6-0.5-2.9-2.3c-0.3-1.8,0.8-2.5,2.1-3.2c5.7-3.3,11.4-6.6,17.1-9.8
		c1.1-0.6,2.4-2.3,3.7-1.2c1.3,1,0.7,2.9,0.4,4.4c-0.4,1-0.8,2-1.5,2.9l0.2-0.2c-6.2,3.6-12.6,6.8-19.2,9.6L273.3,322.4z"/>
	<path class="st1" d="M231.4,313.4L231.4,313.4c-1-1.1-2.5-1.9-2.8-3.6c-0.3-1.4-0.7-3.1,0.3-4.1c1-1,2.3,0.4,3.3,0.9
		c5.7,3.3,11.4,6.6,17.1,9.9c1.7,1,4,1.8,2.9,4.5c-1.2,3.1-3.2,0.2-4.8,0.5c-0.6,0-1.3,0-1.9-0.2l0.2,0.1L231.4,313.4z"/>
	<path class="st1" d="M289,332l2,1.7c0.7,1,1.5,1.9,2.2,3c1,1.6,1.2,3.7,0.2,4.9c-1.4,1.6-2.8-0.5-4-1.2c-5.7-3.1-11.2-6.4-16.8-9.6
		c-1.3-0.7-2.5-1.3-2.2-3.2c0.3-1.7,1.1-2.6,2.9-2.1l-0.1-0.2L289,332z"/>
	<path class="st1" d="M267.9,341.3c0,3.7-3,6.7-6.7,6.8c-3.7,0-6.7-3-6.8-6.7c0.2-3.7,3.3-6.6,7-6.4
		C265,335.2,267.7,337.9,267.9,341.3z"/>
	<path class="st1" d="M260.6,365.5c-3.6-0.5-6.2-3.6-6.1-7.2c0.4-3.6,3.7-6.3,7.3-5.9c3.6,0.3,6.3,3.4,6,7c0,0.1,0,0.1,0,0.2
		C267.4,363.1,264.2,365.7,260.6,365.5z"/>
	<path class="st1" d="M322,199l9.8,10.3C323.5,210.2,323.5,210.2,322,199z"/>
	<path class="st1" d="M188.8,209.3l10.1-9.5C198.9,209.4,198.5,209.7,188.8,209.3z"/>
	<path class="st1" d="M326.9,221.8c3,2.3,5.7,5,8.1,8C327,230.4,326.7,230.1,326.9,221.8z"/>
	<path class="st1" d="M187.1,229.8c2.2-2.9,4.8-5.5,7.7-7.8C195.3,230,194.8,230.4,187.1,229.8z"/>
	<path class="st1" d="M293.2,80.4c-0.1-6.3,4-11.4,9.4-11.6c5.7-0.2,9.5,3.5,9.7,9.3c0.2,6.8-3.8,11.9-9.5,11.9
		C297,89.9,293.3,86.1,293.2,80.4z"/>
	<path class="st1" d="M379.3,108c-0.1,5.9-5.6,11.7-11,11.7c-5.1-0.1-9.3-4.3-9.3-9.4c0.1-5.7,5.9-11.6,11.3-11.4
		C375,98.9,379.4,103.3,379.3,108z"/>
	<path class="st1" d="M197.9,429.2c-0.1,6.1-5,11.8-10.3,11.7c-5.2,0-9.4-4.1-9.4-9.3c0-0.2,0-0.4,0-0.5c0.2-6.3,5.2-11.7,10.4-11.5
		C193.8,419.8,197.9,424,197.9,429.2z"/>
	<path class="st1" d="M231.1,65.8c-0.5-3.2,1.9-2.9,3.7-2.9c3.7-0.1,5.5,2,5.5,5.6s-2.5,4.8-5.6,5.1
		C232.1,73.8,231.1,71.3,231.1,65.8z"/>
	<path class="st1" d="M441.2,299.7c-0.2,2.8-1,5.3-4.1,5.5s-4.2-2.3-4.3-5.1c-0.1-2.8,1-5.1,4.2-5.2
		C439.9,294.9,440.8,297.1,441.2,299.7z"/>
	<path class="st1" d="M454,299.8c-0.1,2.9-1,5.4-4.1,5.4c-3.1,0-4.2-2.4-4.1-5.3c0.1-2.6,0.8-4.9,3.8-5
		C452.9,294.7,453.9,297,454,299.8z"/>
	<path class="st1" d="M440.3,311.5c0.3-2,0.3-4.6,3.1-4.5c2.5,0.1,2.7,2.4,2.7,4.3s0.1,4.6-2.7,4.8
		C440.6,316.2,440.6,313.6,440.3,311.5z"/>
	<path class="st1" d="M75.8,300.1c-0.2,2.8-1.2,5.3-4.3,5.1c-3.1-0.1-4.2-2.5-4.1-5.3s1-5.1,4.3-5C75,294.9,75.6,297.5,75.8,300.1z"
		/>
	<path class="st1" d="M80.4,299.7c0.3-2.4,1.1-4.8,4.1-4.8c3.2,0,4.4,2.3,4.3,5.1c-0.1,2.8-1,5.3-4.3,5.2
		C81.3,305.1,80.6,302.5,80.4,299.7z"/>
	<path class="st1" d="M81.3,311.5c-0.4,2.1-0.4,4.8-3.2,4.5c-2.6-0.2-2.7-2.8-2.7-4.8c0-2.1,0.3-4.2,2.7-4.2
		C80.8,307,81,309.5,81.3,311.5z"/>
</g>
</svg>
