<svg id="Capa_1" data-name="Capa 1" xmlns="http://www.w3.org/2000/svg" viewBox="0 0 522.46 522.39"><path d="M417.86,38c143.25-2.72,261.89,110.76,265.57,253.92,3.8,147.66-112.49,264.31-253.19,268.32C280.73,564.5,162.15,444.82,161.07,301.33,160,157,275.73,40,417.86,38Zm4.47,513.32c140.92.08,255.3-115.4,252.94-257.27C673,155.69,559.91,45.67,422.75,45.35,284.84,45,166.53,157.26,169.4,303.63,172.15,443.46,286.43,551.49,422.33,551.33Z" transform="translate(-161.06 -37.96)"/><path d="M422.83,54.7c134.75.22,243.3,109.47,243.11,244.67C665.75,433.19,556.22,542.24,422.26,542a243.52,243.52,0,0,1-243.6-244.66C179,163.12,288.38,54.47,422.83,54.7ZM572.65,297c.11-82.73-67-150.33-150.16-150.22-84.53.11-148,67.45-150.63,145.86-2.9,86.83,65.06,155,146.52,156.89C505.57,451.57,574.17,380.77,572.65,297ZM306.19,176.53c-1.07-1-2-1.9-3-2.67Q284.9,160,266.55,146.11c-8.14-6.15-8.16-6.13-14.28,2-6.91,9.23-6.91,9.23,2.11,16.28,7.37,5.77,7.32,5.73,1,12.93-1.52,1.74-2.64,2.08-4.51.57-3.24-2.62-6.75-4.9-9.93-7.58-2.41-2-4-2.28-5.94.67a101,101,0,0,1-8.16,10.72c-2.38,2.75-1.76,4.27,1,6.29,12.47,9.2,24.79,18.59,37.16,27.92,7.48,5.64,7.48,5.65,13.27-2,7.49-9.84,7.49-9.84-2.28-17.17-7.4-5.54-7.26-5.43-1.68-12.83,2-2.68,3.37-2.27,5.55-.48,3.46,2.86,7.22,5.37,10.69,8.22,2.27,1.87,3.68,1.36,5.25-.87,2.88-4.08,6-8,9-12C305.2,178.19,305.59,177.47,306.19,176.53ZM465,76c-18.37.42-31.77,14.65-31.23,33.16.5,17.42,15.64,30.79,34.32,30.33,17.12-.43,30.62-15,30.28-32.67C498,89.46,483,75.58,465,76Zm71.49,95.26a31.89,31.89,0,0,0,31.71-31.86c-.09-17.13-15.49-32.28-32.89-32.37-17.16-.1-31.75,14.61-31.69,32S518.92,171.27,536.44,171.25ZM346,509.06a31.83,31.83,0,0,0,31.57-32c-.14-17.33-15.19-31.73-33.27-31.84-17.21-.11-31.63,14.59-31.53,32.14C312.88,494.71,328,509.16,346,509.06ZM393.89,118l1.07-.27c3.1,4.3,6.23,8.56,9.27,12.9,1.35,1.93,2.85,3,5.41,2.63q8.37-1.4,16.8-2.44c3.14-.39,3.89-1.29,1.54-3.88-4.69-5.19-9.21-10.53-13.85-15.76-1.51-1.69-2.52-2.83.32-4.49,5.34-3.12,6.88-8.32,6.39-14.18-1-11.91-8.6-18.61-21.18-18.39-10,.18-19.81,2.48-29.73,3.57-2.73.29-3.14,1.64-2.79,4.06,2.49,17.31,5,34.62,7.25,52,.43,3.22,1.65,4.31,4.83,3.75,4.42-.79,8.88-1.44,13.35-1.91,2.81-.3,3.71-1.55,3.25-4.28C395.07,126.82,394.53,122.38,393.89,118Zm181.19,97c16.4.12,24.71-12,19.14-25.8A19.31,19.31,0,0,1,593,185.9c-.49-2.4-3.09-5.66.29-7,3-1.18,4.06,2.58,5.39,4.79.25.42.28,1,.54,1.39,1.57,2.5-.4,7,2.7,7.85,2.72.75,6.11-1,9.21-1.61,1-.2,1.94-.52,2.92-.65,2.6-.33,3.24-1.75,2.77-4.19-1.89-9.86-6.27-18.25-14.5-24.27a20.84,20.84,0,0,0-25.55.52c-6.5,5.05-7.73,11.77-4,21.66.71,1.86,1.4,3.74,1.93,5.66a2.68,2.68,0,0,1-1,3.13c-1.39.93-2.59.15-3.57-.79-2-1.9-2.83-4.44-3.74-7-1.14-3.16.78-8.11-2.51-9.35-2.77-1-6.71,1.06-10.12,1.77a21.39,21.39,0,0,1-2.44.55c-3.37.3-3.92,2.19-3.4,5.19a45.4,45.4,0,0,0,9,20.89C561.92,210.76,568.28,214.71,575.08,215Zm-8.29,258.38c1.38-.18,2.19-1.35,3.16-2.21,6.11-5.42,12.17-10.88,18.27-16.31,9.78-8.7,9.73-8.64.22-18-1.9-1.87-3.1-1.84-4.93-.1-3.13,3-6.5,5.73-9.67,8.68-1.57,1.47-2.63,1.35-4.13-.2-3.52-3.62.72-4.59,2.18-6,8.93-8.5,9-8.38.49-16.95-1.78-1.8-3-2.16-4.87-.26-2.6,2.58-5.56,4.78-8.2,7.31-1.66,1.59-2.68,1.2-4.07-.33s-1-2.58.33-3.74c1-.87,1.94-1.82,2.95-2.69,10-8.74,10-8.68.2-18.26-1.77-1.74-2.82-1.67-4.51-.14q-12.62,11.39-25.36,22.63c-2,1.75-1.8,3-.1,4.89,12,13.22,23.8,26.54,35.69,39.82C565.09,472.28,565.58,473.23,566.79,473.35ZM313.32,172.05c.71-.44,1.7-1,2.64-1.66,6.59-4.52,13.13-9.09,19.74-13.58,11-7.48,10.95-7.39,3.17-18-1.77-2.41-3-2.33-5.16-.76-3.34,2.46-6.93,4.6-10.26,7.09-1.88,1.42-3,1.37-4.43-.61s-.91-3.18,1-4.39c3-1.85,5.78-3.92,8.69-5.85,1.68-1.13,3.14-2.49,1.18-4.32-3.16-3-3.09-9.07-8.87-9.36-.94,0-1.94,1.19-2.9,1.85-2.47,1.68-5,3.3-7.39,5.09-1.54,1.16-2.54,1-3.7-.53s-1.25-2.94.62-4.08c1.14-.69,2.22-1.46,3.32-2.21,10.55-7.13,10.55-7.13,2.86-17.41a3.69,3.69,0,0,1-.29-.4c-1.29-2.38-2.85-2.2-4.88-.78-9.14,6.37-18.31,12.71-27.57,18.92-2.14,1.45-2.47,2.61-1,4.78,10.15,14.62,20.19,29.31,30.29,44C311.08,170.71,311.55,171.89,313.32,172.05ZM524.66,480.33a1.87,1.87,0,0,1-2.22-.82c-2.86-3.54-.27-4.66,2.48-6.07,11.2-5.72,11.11-5.74,5.5-16.4-1.19-2.27-2.24-2.92-4.58-1.58-3,1.72-6.28,3.08-9.36,4.71-1.83,1-3.15,1.48-4.35-1-1.3-2.65.49-3.16,2.13-4,3.57-1.79,7.12-3.62,10.71-5.38,1.9-.93,3.26-2.16,1.64-4.2-2.82-3.57-2.05-9.57-7.6-11.23-.37-.11-.93.31-1.37.53-10.14,5.05-20.25,10.14-30.41,15.13-2.11,1-2.53,2.08-1.43,4.27q12,23.87,23.76,47.87c1.44,2.93,2.92,2.78,5.45,1.47,8-4.12,16.11-8,24.16-12,8.68-4.32,8.67-4.34,4.48-13-3.07-6.31-3.06-6.31-9.28-3.19C531,477.2,527.53,478.9,524.66,480.33ZM259.55,447.17c.69,12.91,8,22.37,20.36,28.49,2.81,1.38,4.58.79,6.47-1.4,3.06-3.52,6.26-6.91,9.47-10.3,2.07-2.18,2.94-3.68-1.2-4.27a20.27,20.27,0,0,1-6.57-2.22c-4.4-2.35-7.27-5.9-6.71-11.24a12.87,12.87,0,0,1,8.95-10.4c5.13-1.31,9.08.71,12.35,4.57a15.78,15.78,0,0,1,3.18,6.71c.66,2.68,1.73,3,3.55.9,3.48-4,7-8.07,10.5-12.05,1.33-1.5,1.14-2.81.3-4.52-6.29-12.67-22.48-20.12-36.4-16.62S259.12,432.2,259.55,447.17Zm218.18,6.94c-1.24.17-1.57.2-1.9.27-11.11,2.19-22.21,4.43-33.33,6.57-2.81.54-2.78,2.25-2.33,4.46q5.2,25.72,10.31,51.46c.58,3,1.89,3.83,4.85,3.1a128.63,128.63,0,0,1,12.75-2.47c3.54-.51,4.92-1.85,3.87-5.6-1.12-4-1.51-8.2-2.57-12.22-.82-3.12-.17-4.64,3.22-5.05,3.13-.37,6.19-1.25,9.3-1.84,1.94-.36,2.75-1.21,2.63-3.39-.64-11.85-1.77-12.82-13-10.55a24.65,24.65,0,0,0-2.44.55c-2.42.76-3.59,0-4.21-2.58-.68-2.79.57-3.54,2.87-3.95,3.77-.68,7.51-1.55,11.29-2.2,2.5-.43,3.64-1.68,2.7-4.13C480.12,462.42,481.77,457,477.73,454.11Zm-86,38.67h.08c-.43,7.82-.8,15.64-1.31,23.45-.19,2.87.67,4.34,3.82,4.39,4.82.08,9.65.42,14.47.77,2.29.16,3.33-.55,3.39-3,.11-4.33.71-8.65.7-13,0-3.79,1.08-5.6,5.23-4.93,2.78.44,5.66.18,8.48.42,2.24.2,3.52-.43,3.63-2.87.13-3,.36-6,.58-9,.18-2.4-.58-3.77-3.29-3.78-3.16,0-6.31-.36-9.47-.5-2.17-.1-3.94-.34-3.8-3.3s1.52-3.74,4.18-3.5c3.81.34,7.64.5,11.46.81,2.77.23,3.64-1.33,3.31-3.65-.6-4.27,3.28-9-1.33-12.79-.42-.35-1.3-.16-2-.19-10.81-.6-21.62-1.12-32.42-1.84-2.82-.18-3.8.68-3.93,3.53C393.08,473.51,392.36,483.14,391.74,492.78Zm251-249.73c-.35-1-.79-2.47-1.29-3.87-3-8.47-6-16.92-9-25.4-4.13-11.87-4.12-11.92-15.85-7.73-8.42,3-7.4,2.15-4.71,9.48,1.29,3.51.62,4.88-2.94,6.05-10.11,3.31-20,7.11-30.12,10.52-2.69.92-3.31,2.17-2.32,4.73a124.8,124.8,0,0,1,4.31,12.22c1.07,3.94,2.75,4.91,6.73,3.38,9.31-3.58,18.9-6.43,28.15-10.16,4.39-1.77,6.06-.6,6.89,3.53.23,1.13.79,2.18,1.13,3.29.61,2,1.76,2.61,3.78,1.86,4.37-1.61,8.78-3.1,13.17-4.65C642.09,245.83,643.2,245.16,642.78,243.05ZM233.23,213.39c.34-2.12-1-2.46-2.31-2.89-3.94-1.33-8-2.44-11.78-4.08-3.36-1.46-4.64-.42-5.68,2.83q-5.66,17.58-11.77,35c-1.12,3.17-.92,4.86,2.67,5.77a75.8,75.8,0,0,1,10.86,3.67c3.16,1.32,4.65.29,5.37-2.77.27-1.13.84-2.19,1.06-3.32.63-3.14,2-3.94,5.24-2.77,9.86,3.56,19.92,6.54,29.75,10.17,3.9,1.44,5.31.3,6.31-3.28A105.12,105.12,0,0,1,267,239.92c1.38-3.31.33-4.72-2.9-5.75-9.67-3.07-19.2-6.57-28.9-9.54-4-1.21-5.89-2.59-3.52-6.8A24.57,24.57,0,0,0,233.23,213.39ZM614,364.4h10c7.55,0,7.37,0,6.51-7.63-.28-2.46-2.49-6.7.94-7.31,4.09-.71,2.69,3.91,3.23,6.41.37,1.76,1.11,3.21,3,3.62,1.47.33,2.54-.47,3.33-1.69,3.83-5.93-.16-15-7.1-15.71-2.86-.27-3.93-1.15-3.31-4,.25-1.13.08-2.35.34-3.47,1.06-4.42-1-5.43-5-5.27-6.48.25-13,.06-19.48.08-8.93,0-8.93,0-8.76,9.05,0,.33,0,.66,0,1,0,1.06-.11,2.11-1.39,2.21a2,2,0,0,1-2.22-1.63c-.31-1.62-.22-3.32-.56-4.93-.38-1.84-1.16-3.74-3.43-3.64s-3.51,1.78-3.55,4.06q-.06,4,.16,8c.16,2.87,1.78,4.47,4.59,5.1,7.65,1.71,7.64,1.75,6.25,9.47a13.05,13.05,0,0,1-.43,1.95c-1.07,3.18-.21,4.59,3.4,4.4C605,364.23,609.47,364.41,614,364.4Zm-384.57,0h7c10.34,0,10.46,0,9-10-.56-3.79.3-5.69,4.44-5.59,2.88.07,5.9-.25,6.8-3.76a29.66,29.66,0,0,0,.31-10.42,3.34,3.34,0,0,0-3.36-3.14c-2-.08-2.95,1.43-3.39,3.1a25.79,25.79,0,0,0-.36,4c-.15,1.6-.66,3.23-2.53,3.08s-1.25-2-1.25-3.19a21.54,21.54,0,0,1,.37-4.47c.77-3.63-.72-4.66-4.23-4.58-8.32.19-16.65.28-25,0-4.25-.17-5.37,1.4-4.51,5.22.21,1,.06,2,.27,3,.67,3.19-.36,4.6-3.8,4.56-2.44,0-5.32.19-6.36,3a22.06,22.06,0,0,0-.56,11.79,3.17,3.17,0,0,0,3.24,2.63,3.09,3.09,0,0,0,3.15-2.7,40.8,40.8,0,0,0,.56-4.94,2.74,2.74,0,0,1,2.94-2.77c2,0,1.67,1.83,1.54,3a73.42,73.42,0,0,1-1.41,8.85c-.58,2.47.2,3.42,2.64,3.41C219.73,364.36,224.56,364.39,229.39,364.4ZM614.1,321.27v.05c4.14,0,8.29.06,12.43,0,1.58,0,3.61.76,4.59-1,1.1-1.92.07-3.86-1-5.59-2.06-3.41-7.55-6.1-9.51-4.7-5.52,3.94-8.33,4-12.93.14a2.23,2.23,0,0,0-2.26-.35c-4,.94-6.92,3.13-8.25,7.12-.9,2.71-.61,4.49,3,4.36C604.81,321.14,609.46,321.27,614.1,321.27Zm-384.55,0v0c4.64,0,9.29,0,13.93,0,1.1,0,2.68.38,3.09-1,.87-2.84-.54-5.27-2.42-7.15-2.09-2.1-4.91-4.55-7.79-3.09-7.15,3.64-7.62,3.91-13.55,0a2.57,2.57,0,0,0-1.84-.31c-4.29,1-7.58,3.26-8.77,7.83-.66,2.55.24,3.76,2.92,3.74C219.93,321.25,224.74,321.28,229.55,321.28Zm384.84,45.19v0c-5.16,0-10.33,0-15.49,0-1.66,0-3.54-.2-3.67,2.26-.12,2.23.69,4.37,3,4.42,10.48.19,21,.17,31.46,0,2.44,0,3.33-1.9,3.19-4.21s-1.76-2.5-3.55-2.5C624.39,366.48,619.39,366.47,614.39,366.47Zm-384.95,0c-4.82,0-9.64,0-14.46,0-2,0-4.22-.35-4.34,2.7s1.68,4.1,4.39,4.11c5.82,0,11.64,0,17.46,0,4,0,8,0,12-.05,2.7-.06,3.8-1.74,3.82-4.25,0-2.81-2.07-2.54-3.87-2.55C239.42,366.43,234.43,366.45,229.44,366.45Zm364.44-48.06c-2.68,6.25-1.7,8.82,2.67,8.9,11.8.23,23.6.18,35.4,0a4.28,4.28,0,0,0,4-6c-.4-.91-1.45-2.05-1.95-.45-1,3.11-3.27,2.28-5.27,2.29-9.64.06-19.28,0-28.93.09C597,323.28,594.44,323.32,593.88,318.39Zm-384.93.3c-2.14,6.71-1.09,8.58,4,8.64,11.15.14,22.3.06,33.45,0,1.68,0,3.47-.13,4.42-1.76,1.07-1.82,1.53-4.24-.3-5.44-2.09-1.37-1.29,1.41-2,2.17-1.07,1.19-2.47.84-3.73.85-10.15,0-20.3,0-30.45,0C211.84,323.26,209.81,322.9,209,318.69Zm405.18-7.92c1.28-.54,3.85,1,3.45-2-.24-1.8-1.33-3.5-3.56-3.44s-3.28,1.78-3.45,3.59C610.31,311.93,612.9,310.15,614.13,310.77Zm-384.29,0c1.26-.36,3.42.68,3.14-1.83-.2-1.85-1.19-3.58-3.36-3.57a3.49,3.49,0,0,0-3.61,3.82C226.13,311.67,228.51,310.28,229.84,310.73Z" transform="translate(-161.06 -37.96)"/><path d="M552.91,264.09c-4.65-2.48-8.75-5.69-13.76-7.22s-7.43.25-6.81,5.56c.75,6.32,4.12,11.53,7.76,16.54,1.52,2.1,3.25,4,5.42,6.74-4.41-2.34-8-4.42-11.69-6.13-2.6-1.18-5.63-2-8.05.16s-1.53,5.2-.72,8c1.51,5.21,4.8,9.41,8.09,13.63-1.31,1.07-1.94-.08-2.64-.51-3.6-2.17-7.45-3.78-11.17-.93s-4.36,7.29-3.15,11.8a92.38,92.38,0,0,1,3.44,27.66c-.94,24.34-8.52,46.88-19.16,68.72-1.29-42.92-2.06-85.79-6.71-129.43,5.87,4,9.23,9,13.08,13.49,2.85-4.41,2.85-4.41,10.71-3.71-1.78-3.51-3.68-6.73-5.11-10.15-4.23-10.06-1.68-13.59,9.22-12.6-2.32-4.7-4.56-9.24-6.77-13.8a12.18,12.18,0,0,1-.84-2.35c-.93-3.67-2.79-7.64.7-10.75,3.19-2.84,6.61-.64,9.83.66.45.18.92.29,2.34.73-2.25-4.34-4.47-7.91-6-11.76-2.42-6.1-7.66-11.61-4.54-19.09.36-.88-.72-1.4-1.44-1.73-7.74-3.53-15.43-7.24-24.12-7.73-2.43-.14-5.27-.51-6.77,2.1s.06,5.12,1.35,7.46c2.48,4.51,6.81,7.5,10.3,11.89-4.33.36-8.09-.85-11.79.49-2.24.82-2.2-1.55-2.66-2.75a96,96,0,0,0-11.09-21.2c-10.89-15.18-26.29-21.42-44.35-22.11-14.72-.56-29,.85-41.44,10-10.63,7.82-16.82,18.78-21.26,30.8-1.42,3.86-3,5.8-7.34,4.77-2.15-.51-4.53-.09-7.39-.09,3-3.22,5.86-6.06,8.39-9.2,2.28-2.83,5.17-6.09,3.11-9.85s-6.24-2.41-9.58-2c-7.53,1-14.36,4.17-21.12,7.43-1,.46-2.37.81-1.29,2.51,2.11,3.33.28,6.48-.83,9.51-2.51,6.89-6.23,13.22-9.73,19.75,2,1.07,3.21-.61,4.62-1.1,6.39-2.19,9.85.43,9,7.19-.81,6.07-3.88,11.29-6.8,16.53-.63,1.13-1.26,2.25-2,3.52,11.27-.53,13.71,3.22,9.06,13.58-1.36,3-3.06,5.88-4.82,9.2,4,.4,9.15-2.55,10.16,4.47,4.42-5,7.76-10.14,13.73-14.12-4.19,44.21-4.95,87.65-5.85,131.18-3.46-4.7-5.36-10-7.35-15.14C330.28,377.05,325,359.07,324.48,340a101.21,101.21,0,0,1,2.85-26.7,23.45,23.45,0,0,0,.76-4.9c.11-8.56-5.66-12.1-13.3-8.33-1.26.62-2.17,2-4.26,1.84,3.35-4.44,6.63-8.62,8.25-13.73.92-2.88,1.94-6.09-.58-8.47-2.36-2.22-5.45-1.18-8.05-.07-3.3,1.41-6.43,3.24-10.87,5.53,4.06-5.52,7.59-9.8,9.91-14.87a26.44,26.44,0,0,0,2.67-8.54c.36-4.12-2.22-6.13-6.26-5.09-5.62,1.44-10,5.24-15.32,7.69l4.2-4.89a34.71,34.71,0,0,0,7.07-12.53c.72-2.39,1.64-5.84-.57-7-5.45-2.92-2.17-5.73-.56-8.56C351.9,141,478,134.74,536.87,219.69c2.83,4.09,5.2,8.52,7.7,12.84,1.46,2.54,3.94,4.92-1.19,6.94-2.7,1.07-1.69,4.71-1,7.29C544.23,253.52,548.74,258.67,552.91,264.09Z" transform="translate(-161.06 -37.96)"/><path d="M378.43,314.43a9.57,9.57,0,0,1-7.66-4.05c-.68-.93-1.53-2-.12-3,5.79-4.11,6.3-10.63,7.56-16.75,1.67-8.12,2.22-16.47,5.18-24.32,1.63-4.35,3.89-8.12,8.64-9.64,6.09-1.94,11.06,2,9.08,7.92-4.05,12.2-5.66,24.89-8.79,37.25C390.47,309.16,384.22,314.36,378.43,314.43Z" transform="translate(-161.06 -37.96)"/><path d="M450.18,256.19c4.71.42,7.91,3.25,10,7.61,3,6.26,4,13,5,19.74.86,5.6,1.63,11.2,3.54,16.56.79,2.21,1.54,4.67,3.5,5.92,4.4,2.82,1.82,4.78-.62,6.6-3.6,2.7-8.48,2.19-12.93-1.13A17,17,0,0,1,452,301.21c-2.6-12.34-4.68-24.78-8.62-36.83C441.87,259.63,445.09,256.15,450.18,256.19Z" transform="translate(-161.06 -37.96)"/><path d="M464.22,234.81c-.07,7.57-5,13.47-12.62,15.2-7,1.58-14.59-1.77-17.27-8.55-1.57-4-3.77-4.9-7.46-4.48a26.83,26.83,0,0,1-5,0c-5.55-.41-10-.33-12.86,6.4-2.69,6.41-11.3,8.41-18.26,6.05-6.68-2.27-10.91-9-10.34-16.49a15.93,15.93,0,0,1,12.85-14.05c6.75-1.38,14.4,2,16.9,8.47,1.63,4.25,4,5,7.83,4.65a29.5,29.5,0,0,1,5.48,0c5.33.47,9.41.16,12-6.2s10.72-8.52,17.66-6.44A15.5,15.5,0,0,1,464.22,234.81ZM396.33,246.9a12.36,12.36,0,1,0-.21-24.71,12.36,12.36,0,0,0,.21,24.71Zm52.17,0a12.36,12.36,0,0,0-.17-24.71,12.36,12.36,0,1,0,.17,24.71Z" transform="translate(-161.06 -37.96)"/><path d="M438.19,259.75a4.94,4.94,0,0,1-1.5,4.27c-4,4.42-8.12,8.79-11.93,13.4-2,2.46-3.29,1.79-5-.18-3.94-4.5-8-8.92-12-13.33-2.06-2.24-2-4.4,0-6.6,4.21-4.7,8.41-9.42,12.66-14.09.87-1,1.84-2.2,3.24-.63q7.13,8,14.19,16.06A1.68,1.68,0,0,1,438.19,259.75Zm-5.29-2.65c-3.45-3.93-6.29-7.09-9-10.33-1.26-1.48-2.2-1-3.23.2-2.79,3.17-5.6,6.33-9,10.13Z" transform="translate(-161.06 -37.96)"/><path d="M405.89,362.57c.63,1.26,2.05.84,3,1.45,5.62,3.54,5.62,5.77-.13,9.08l-20.46,11.8c-.26-1.25-.69-2-.47-2.46,2-3.89-.14-7.71-.09-11.56.06-4.48.07-9,0-13.45,0-2.29.21-4.08,3.21-3.37h-.07c3.67,5.3,9.51,6.8,15.15,8.64Z" transform="translate(-161.06 -37.96)"/><path d="M448,214.82c-3.81,0-7.63-.13-11.43,0s-3.7-2.41-3.52-5c.16-2.39-1.22-5.71,3.29-5.68,8.12.05,16.24,0,24.36.05,4.6,0,2.69,3.65,2.91,5.9s.59,4.84-3.18,4.69c-4.14-.15-8.29,0-12.43,0Z" transform="translate(-161.06 -37.96)"/><path d="M396,214.82c-3.83,0-7.66-.14-11.48.05-3.49.18-3.89-1.88-3.51-4.44.35-2.38-1.75-6.19,3.24-6.18,8,0,16,.05,23.95,0,4.57,0,3.15,3.3,3.3,5.66s.48,5.16-3.52,5S400,214.82,396,214.82Z" transform="translate(-161.06 -37.96)"/><path d="M435,366.75a2,2,0,0,1,0-3.18l-.15.12c7.67-1.53,14.65-4.44,20.22-10.14l-.18.18c1.62.46,1.76,1.68,1.75,3.13-.05,5.33,0,10.66,0,16,0,2-.05,3.93-2.94,2.56l-2.14-1.74c-5-3.59-10.42-6.36-16.68-7.08Z" transform="translate(-161.06 -37.96)"/><path d="M422.7,371.64c-7.24,0-8.73-1.2-8.62-6.91.1-5.48,1.55-6.52,9.09-6.51,6.36,0,7.88,1.31,7.86,6.74S429.63,371.64,422.7,371.64Z" transform="translate(-161.06 -37.96)"/><path d="M435,363.57c-1.64,0-2.78-.54-3.05-2.47s.88-2.62,2.21-3.39c6-3.44,11.95-6.95,18-10.34,1.2-.68,2.56-2.39,3.89-1.31s.73,3.1.39,4.67a12.89,12.89,0,0,1-1.53,3l.18-.18a171.21,171.21,0,0,1-20.22,10.14Z" transform="translate(-161.06 -37.96)"/><path d="M390.9,354.07H391c-1.18-1.11-2.69-2-3-3.75-.3-1.45-.71-3.28.35-4.29s2.44.4,3.5,1c6,3.43,12,7,18,10.47,1.82,1.06,4.2,1.86,3.05,4.76-1.28,3.25-3.34.2-5,.5a7.38,7.38,0,0,1-2-.18l.16.14Z" transform="translate(-161.06 -37.96)"/><path d="M451.52,373.67l2.14,1.74c.77,1,1.63,2,2.31,3.13,1,1.68,1.25,3.93.16,5.18-1.44,1.65-2.91-.54-4.19-1.24-5.95-3.29-11.79-6.76-17.68-10.15-1.33-.75-2.68-1.4-2.34-3.33.31-1.77,1.17-2.69,3.07-2.25l-.15-.16Z" transform="translate(-161.06 -37.96)"/><path d="M429.36,383.52a7.07,7.07,0,0,1-14.14.11,7.08,7.08,0,0,1,14.14-.11Z" transform="translate(-161.06 -37.96)"/><path d="M421.64,408.93a7.3,7.3,0,0,1-6.38-7.62,7.14,7.14,0,0,1,7.71-6.25,6.84,6.84,0,0,1,6.28,7.55A7.17,7.17,0,0,1,421.64,408.93Z" transform="translate(-161.06 -37.96)"/><path d="M486.29,233.67l10.3,10.84C487.8,245.49,487.8,245.49,486.29,233.67Z" transform="translate(-161.06 -37.96)"/><path d="M346,244.58l10.68-10C356.63,244.6,356.22,245,346,244.58Z" transform="translate(-161.06 -37.96)"/><path d="M491.43,257.72a51.93,51.93,0,0,1,8.51,8.39C491.55,266.75,491.24,266.43,491.43,257.72Z" transform="translate(-161.06 -37.96)"/><path d="M344.23,266.08a46,46,0,0,1,8.15-8.23C352.86,266.27,352.38,266.76,344.23,266.08Z" transform="translate(-161.06 -37.96)"/><path d="M455.91,108.83c-.13-6.63,4.23-12,9.85-12.26,6-.22,10,3.66,10.18,9.77.2,7.16-4,12.48-10,12.48S456,114.86,455.91,108.83Z" transform="translate(-161.06 -37.96)"/><path d="M546.55,137.85c-.11,6.19-5.85,12.27-11.59,12.27a10,10,0,0,1-9.8-9.9c.13-6,6.22-12.19,11.85-12C542.06,128.33,546.63,133,546.55,137.85Z" transform="translate(-161.06 -37.96)"/><path d="M355.58,476c-.09,6.41-5.3,12.37-10.79,12.34a9.83,9.83,0,0,1-9.9-10.32c.24-6.58,5.45-12.32,11-12.08A10,10,0,0,1,355.58,476Z" transform="translate(-161.06 -37.96)"/><path d="M390.55,93.48c-.48-3.41,2-3,3.85-3,3.92-.11,5.81,2.15,5.77,5.85s-2.65,5.08-5.93,5.34C391.65,101.85,390.53,99.25,390.55,93.48Z" transform="translate(-161.06 -37.96)"/><path d="M611.69,339.69c-.2,2.9-1.07,5.6-4.35,5.76s-4.46-2.44-4.54-5.38,1.08-5.41,4.46-5.43C610.39,334.63,611.35,337,611.69,339.69Z" transform="translate(-161.06 -37.96)"/><path d="M625.23,339.79c-.09,3-1,5.65-4.29,5.67s-4.38-2.49-4.32-5.53c.06-2.72.82-5.13,4-5.3C624.07,334.45,625.06,336.87,625.23,339.79Z" transform="translate(-161.06 -37.96)"/><path d="M610.77,352.09c.33-2.1.27-4.79,3.26-4.7,2.58.08,2.82,2.48,2.8,4.52s.07,4.89-2.84,5S611.05,354.28,610.77,352.09Z" transform="translate(-161.06 -37.96)"/><path d="M227.09,340.1c-.24,2.91-1.29,5.54-4.52,5.42s-4.37-2.67-4.28-5.62,1.06-5.34,4.5-5.28S226.85,337.34,227.09,340.1Z" transform="translate(-161.06 -37.96)"/><path d="M231.93,339.68c.35-2.54,1.12-5,4.3-5.05,3.36,0,4.62,2.39,4.55,5.35s-1.09,5.56-4.48,5.47S232.19,342.62,231.93,339.68Z" transform="translate(-161.06 -37.96)"/><path d="M232.84,352.11c-.41,2.16-.4,5-3.32,4.75-2.76-.2-2.81-2.91-2.8-5.07s.36-4.47,2.89-4.44C232.38,347.39,232.57,350,232.84,352.11Z" transform="translate(-161.06 -37.96)"/></svg>