<svg id="Capa_1" data-name="Capa 1" xmlns="http://www.w3.org/2000/svg" viewBox="0 0 522.39 522.39"><defs><style>.cls-1{fill:#a17171;}.cls-2{fill:#4f2b30;}</style></defs><circle class="cls-1" cx="261.2" cy="261.2" r="261.2"/><path class="cls-2" d="M257,13.1c136.09-2.59,248.8,105.22,252.29,241.22,3.61,140.28-106.86,251.1-240.53,254.91-142,4-254.68-109.65-255.71-246C12.05,126.15,122,15,257,13.1Zm4.25,487.65c133.87.08,242.53-109.63,240.29-244.4C499.4,124.9,392,20.38,261.67,20.08,130.65,19.75,18.26,126.39,21,265.45,23.6,398.28,132.16,500.91,261.27,500.76Z" transform="translate(-0.86 0)"/><path class="cls-2" d="M261.74,29c128,.21,231.14,104,231,232.44-.18,127.13-104.24,230.73-231.5,230.5-127.77,0-231.38-103.5-231.42-231.27v-1.16C30.1,132,134,28.74,261.74,29ZM404.07,259.15c.11-78.6-63.65-142.82-142.65-142.71-80.3.1-140.6,64.08-143.1,138.57-2.75,82.48,61.81,147.25,139.2,149C340.35,406,405.52,338.73,404.07,259.15ZM150.94,144.7c-1-.95-1.9-1.8-2.85-2.54L113.28,115.8c-7.74-5.84-7.75-5.82-13.57,1.9-6.56,8.77-6.56,8.77,2,15.47,7,5.48,7,5.44,1,12.28-1.45,1.65-2.51,2-4.29.54-3.08-2.49-6.41-4.65-9.43-7.2-2.29-1.9-3.8-2.16-5.65.64a95.51,95.51,0,0,1-7.75,10.18c-2.26,2.62-1.67,4.06,1,6,11.85,8.74,23.55,17.66,35.3,26.52,7.11,5.36,7.11,5.37,12.61-1.9,7.12-9.35,7.12-9.35-2.16-16.31-7-5.26-6.9-5.16-1.6-12.19,1.9-2.54,3.2-2.15,5.27-.45,3.29,2.71,6.86,5.1,10.16,7.81,2.15,1.77,3.49,1.29,5-.83,2.74-3.88,5.7-7.6,8.55-11.4C150,146.28,150.37,145.59,150.94,144.7ZM301.8,49.2c-17.45.4-30.18,13.92-29.66,31.5.47,16.55,14.85,29.25,32.6,28.81,16.26-.41,29.09-14.25,28.77-31C333.15,62,318.9,48.8,301.8,49.2Zm67.92,90.49a30.28,30.28,0,0,0,30.12-30.26c-.08-16.28-14.71-30.67-31.24-30.75-16.3-.1-30.16,13.88-30.11,30.4S353,139.7,369.67,139.69Zm-181,320.91a30.24,30.24,0,0,0,30-30.4c-.14-16.46-14.43-30.14-31.61-30.24-16.35-.11-30,13.86-29.95,30.53C157.29,447,171.65,460.7,188.75,460.6Zm45.5-371.5,1-.26c2.94,4.09,5.92,8.13,8.8,12.26,1.29,1.83,2.71,2.85,5.14,2.49q7.95-1.32,16-2.31c3-.37,3.7-1.23,1.47-3.69-4.46-4.93-8.75-10-13.16-15-1.44-1.61-2.4-2.69.3-4.27,5.08-3,6.54-7.9,6.07-13.47-1-11.31-8.17-17.68-20.12-17.47-9.5.17-18.82,2.36-28.24,3.39-2.6.28-3,1.56-2.65,3.86,2.36,16.44,4.75,32.89,6.89,49.4.4,3.06,1.56,4.09,4.58,3.56,4.2-.75,8.44-1.37,12.69-1.81,2.67-.29,3.52-1.47,3.08-4.07C235.37,97.48,234.86,93.26,234.25,89.1Zm172.13,92.15c15.58.11,23.48-11.4,18.18-24.51a18.48,18.48,0,0,1-1.16-3.14c-.46-2.28-2.93-5.37.28-6.65,2.85-1.12,3.86,2.45,5.12,4.55.24.4.27.95.51,1.32,1.5,2.38-.38,6.65,2.57,7.46,2.58.71,5.8-.95,8.75-1.53.95-.19,1.84-.49,2.77-.62,2.47-.31,3.08-1.66,2.63-4-1.79-9.36-5.95-17.33-13.77-23.05a19.79,19.79,0,0,0-24.27.49c-6.18,4.8-7.35,11.18-3.8,20.58.67,1.77,1.33,3.55,1.83,5.38a2.54,2.54,0,0,1-.95,3c-1.32.88-2.46.14-3.39-.75-1.9-1.81-2.69-4.22-3.55-6.65-1.09-3,.74-7.71-2.39-8.88-2.63-1-6.37,1-9.61,1.68a21,21,0,0,1-2.32.52c-3.2.28-3.73,2.08-3.23,4.93a43.18,43.18,0,0,0,8.55,19.85C393.88,177.22,399.92,181,406.38,181.25Zm-7.87,245.46c1.31-.17,2.08-1.28,3-2.1,5.8-5.15,11.56-10.34,17.35-15.5,9.29-8.26,9.25-8.2.21-17.1-1.8-1.77-2.94-1.74-4.68-.09-3,2.85-6.18,5.44-9.19,8.25-1.49,1.39-2.5,1.28-3.92-.19-3.34-3.44.68-4.36,2.07-5.7,8.48-8.08,8.55-8,.47-16.11-1.7-1.71-2.85-2.05-4.63-.24-2.47,2.45-5.28,4.54-7.79,6.94-1.58,1.51-2.55,1.14-3.87-.31s-.95-2.45.32-3.56c.95-.82,1.84-1.72,2.8-2.55,9.5-8.3,9.5-8.25.19-17.35-1.68-1.65-2.68-1.58-4.29-.13q-12,10.81-24.09,21.5c-1.9,1.66-1.71,2.85-.09,4.64,11.4,12.56,22.61,25.22,33.9,37.83.62.72,1.09,1.63,2.24,1.74ZM157.71,140.45c.67-.42,1.61-.95,2.51-1.58,6.26-4.3,12.47-8.64,18.75-12.9,10.45-7.11,10.4-7,3-17.1-1.68-2.29-2.85-2.22-4.9-.72-3.17,2.33-6.58,4.37-9.75,6.73-1.78,1.35-2.85,1.3-4.21-.58s-.86-3,.95-4.17c2.85-1.76,5.49-3.72,8.26-5.56,1.6-1.07,3-2.36,1.12-4.1-3-2.85-2.94-8.62-8.43-8.89-.89,0-1.84,1.13-2.75,1.75-2.35,1.6-4.75,3.14-7,4.84-1.46,1.1-2.41,1-3.52-.5s-1.18-2.8.59-3.88c1.09-.65,2.11-1.39,3.16-2.1,10-6.77,10-6.77,2.71-16.54a3.28,3.28,0,0,1-.27-.38c-1.23-2.26-2.71-2.09-4.64-.74-8.68,6-17.39,12.08-26.19,18-2,1.38-2.35,2.48-1,4.55,9.64,13.88,19.18,27.84,28.78,41.8C155.58,139.17,156,140.29,157.71,140.45ZM358.48,433.31a1.77,1.77,0,0,1-2.11-.78c-2.71-3.36-.25-4.42,2.36-5.76,10.64-5.44,10.55-5.46,5.22-15.58-1.13-2.16-2.12-2.78-4.35-1.51-2.85,1.64-6,2.93-8.89,4.48-1.74.95-3,1.41-4.13-1-1.24-2.52.46-3,2-3.8,3.39-1.7,6.77-3.44,10.18-5.11,1.8-.89,3.09-2.05,1.55-4-2.67-3.39-1.94-9.09-7.22-10.67-.35-.1-.88.29-1.3.5-9.63,4.8-19.23,9.64-28.89,14.38-2,1-2.4,2-1.36,4.05q11.4,22.68,22.58,45.48c1.36,2.78,2.77,2.64,5.17,1.4,7.6-3.92,15.31-7.6,23-11.4,8.24-4.11,8.23-4.13,4.25-12.35-2.91-6-2.9-6-8.81-3C364.5,430.34,361.21,432,358.48,433.31Zm-251.85-31.5c.65,12.26,7.6,21.25,19.34,27.06,2.67,1.32,4.35.76,6.15-1.33,2.9-3.34,5.94-6.56,9-9.78,2-2.07,2.8-3.5-1.14-4.06a19.2,19.2,0,0,1-6.24-2.11c-4.18-2.23-6.91-5.6-6.37-10.67a12.21,12.21,0,0,1,8.5-9.88c4.87-1.25,8.62.67,11.73,4.34a14.91,14.91,0,0,1,3,6.37c.63,2.55,1.65,2.85,3.37.86,3.31-3.8,6.65-7.67,10-11.45,1.26-1.43,1.08-2.67.28-4.29-6-12-21.35-19.12-34.58-15.79S106.22,387.59,106.63,401.81ZM313.9,408.4c-1.18.16-1.49.19-1.81.26-10.55,2.08-21.1,4.21-31.66,6.24-2.67.51-2.64,2.14-2.21,4.24Q283.15,443.58,288,468c.55,2.85,1.8,3.64,4.61,3a121.51,121.51,0,0,1,12.11-2.35c3.36-.48,4.67-1.75,3.68-5.32-1.07-3.8-1.44-7.79-2.44-11.61-.78-3-.17-4.4,3-4.79,3-.36,5.89-1.19,8.84-1.75,1.84-.34,2.61-1.15,2.5-3.22-.61-11.26-1.68-12.18-12.35-10a20.46,20.46,0,0,0-2.32.52c-2.3.72-3.41,0-4-2.45-.65-2.65.54-3.37,2.73-3.76,3.58-.64,7.13-1.47,10.72-2.09,2.38-.4,3.46-1.59,2.57-3.92-1.54-3.91,0-9.06-3.81-11.81Zm-81.7,36.74h.07c-.4,7.43-.76,14.86-1.24,22.28-.18,2.72.64,4.12,3.63,4.17,4.58.07,9.17.4,13.75.73,2.17.15,3.16-.52,3.22-2.85.1-4.12.67-8.22.66-12.35,0-3.6,1-5.32,5-4.69,2.64.42,5.38.18,8.06.4,2.12.19,3.34-.4,3.44-2.72.13-2.85.35-5.7.55-8.55.18-2.28-.55-3.58-3.12-3.59-3,0-6-.35-9-.48-2.06-.09-3.74-.32-3.61-3.13s1.45-3.56,4-3.33c3.62.32,7.26.48,10.89.77,2.63.22,3.46-1.26,3.15-3.47-.57-4.05,3.11-8.55-1.27-12.15-.4-.33-1.23-.15-1.9-.18-10.27-.57-20.54-1.06-30.8-1.75-2.68-.17-3.61.65-3.73,3.36-.41,9.22-1.09,18.37-1.68,27.53ZM470.65,207.9c-.33-1-.75-2.35-1.23-3.68l-8.55-24.13c-3.92-11.28-3.91-11.33-15.05-7.34-8,2.85-7,2-4.48,9,1.23,3.34.59,4.64-2.79,5.75-9.61,3.14-19,6.75-28.62,10-2.55.88-3.14,2.06-2.2,4.5a118.33,118.33,0,0,1,4.09,11.61c1,3.74,2.62,4.66,6.4,3.21,8.84-3.4,17.95-6.11,26.74-9.66,4.17-1.68,5.76-.57,6.55,3.36a32.83,32.83,0,0,0,1.07,3.12c.58,1.9,1.67,2.48,3.59,1.77,4.15-1.53,8.34-2.94,12.51-4.42,1.36-.44,2.41-1.08,2-3.08Zm-389-28.18c.33-2-1-2.34-2.19-2.75-3.74-1.26-7.6-2.32-11.19-3.87-3.19-1.39-4.41-.4-5.4,2.69Q57.47,192.49,51.66,209c-1.06,3-.87,4.61,2.54,5.48A71.83,71.83,0,0,1,64.51,218c3,1.26,4.42.28,5.11-2.63.25-1.07.79-2.08,1-3.15.6-3,1.9-3.75,5-2.63,9.37,3.38,18.92,6.21,28.26,9.66,3.71,1.37,5,.28,6-3.12a100.77,100.77,0,0,1,3.84-11.21c1.32-3.14.32-4.48-2.75-5.46-9.19-2.92-18.24-6.24-27.46-9.06-3.8-1.15-5.59-2.46-3.34-6.46A22.69,22.69,0,0,0,81.62,179.72ZM443.35,323.18h9.5c7.18,0,7,0,6.19-7.25-.27-2.34-2.37-6.37.89-6.95,3.89-.67,2.56,3.72,3.07,6.09.35,1.68,1.06,3.05,2.85,3.44a2.89,2.89,0,0,0,3.16-1.6c3.64-5.64-.15-14.25-6.74-14.93-2.72-.25-3.73-1.09-3.15-3.8.24-1.07.08-2.23.33-3.29,1-4.2-.95-5.16-4.75-5-6.16.24-12.35.06-18.51.08-8.48,0-8.48,0-8.32,8.59v.95c0,1-.1,2-1.32,2.1a1.9,1.9,0,0,1-2.11-1.55c-.29-1.53-.21-3.15-.53-4.68-.36-1.75-1.1-3.55-3.26-3.46s-3.33,1.69-3.37,3.86c0,2.53,0,5.07.15,7.6.15,2.73,1.69,4.25,4.36,4.85,7.27,1.62,7.26,1.66,5.94,9a12.7,12.7,0,0,1-.41,1.85c-1,3-.2,4.36,3.23,4.18C434.8,323,439.05,323.19,443.35,323.18ZM78,323.18h6.65c9.83,0,9.94,0,8.55-9.5-.53-3.6.29-5.41,4.22-5.31,2.74.06,5.61-.24,6.46-3.57a28.4,28.4,0,0,0,.3-9.9,3.19,3.19,0,0,0-3.2-3c-1.9-.07-2.8,1.36-3.22,2.95a25.32,25.32,0,0,0-.34,3.8c-.14,1.52-.63,3.07-2.4,2.92s-1.19-1.9-1.19-3a20.81,20.81,0,0,1,.35-4.24c.73-3.45-.68-4.43-4-4.35-7.9.18-15.81.26-23.75,0-4-.17-5.1,1.33-4.28,5,.2.95.06,1.9.26,2.85.63,3-.35,4.37-3.61,4.33-2.32,0-5.06.18-6,2.85a21,21,0,0,0-.53,11.2,3,3,0,0,0,3.08,2.5,2.93,2.93,0,0,0,3-2.57,38.9,38.9,0,0,0,.53-4.69,2.6,2.6,0,0,1,2.57-2.64h.23c1.9,0,1.58,1.74,1.46,2.85a70.25,70.25,0,0,1-1.34,8.4c-.55,2.35.19,3.25,2.51,3.24,4.56-.11,9.15-.08,13.74-.07Zm365.44-41v.05c3.93,0,7.88.06,11.81,0,1.5,0,3.43.72,4.36-.95s.07-3.67-.95-5.31c-2-3.24-7.17-5.79-9-4.46-5.24,3.74-7.91,3.8-12.28.13a2.1,2.1,0,0,0-2.15-.33c-3.8.89-6.57,3-7.83,6.76-.86,2.58-.58,4.27,2.85,4.14C434.62,282.08,439,282.2,443.45,282.2Zm-365.32,0H91.36c1,0,2.55.37,2.94-.95.82-2.69-.52-5-2.3-6.79-2-2-4.67-4.32-7.4-2.93-6.8,3.45-7.24,3.71-12.88,0a2.41,2.41,0,0,0-1.74-.3c-4.08.95-7.2,3.1-8.34,7.44-.62,2.42.23,3.57,2.78,3.55,4.57,0,9.14,0,13.71,0Zm365.6,42.93H429c-1.58,0-3.36-.19-3.49,2.15-.11,2.12.66,4.15,2.85,4.2,10,.18,19.95.16,29.89,0,2.32,0,3.16-1.8,3-4s-1.67-2.37-3.37-2.37c-4.69,0-9.44,0-14.19,0ZM78,325.13H64.29c-1.9,0-4-.33-4.13,2.57s1.6,3.89,4.17,3.9H80.92c3.8,0,7.6,0,11.4,0,2.57-.06,3.61-1.66,3.63-4,0-2.67-2-2.41-3.68-2.42l-14.25,0Zm346.22-45.65c-2.55,5.94-1.61,8.38,2.54,8.45,11.21.22,22.42.17,33.63,0a4.06,4.06,0,0,0,4.14-4,4.21,4.21,0,0,0-.34-1.71c-.38-.86-1.38-1.94-1.86-.42-1,2.95-3.1,2.16-5,2.17-9.16.06-18.32,0-27.49.09-2.66,0-5.09.08-5.62-4.6Zm-365.68.28c-2,6.38-1,8.15,3.8,8.21,10.59.13,21.18.06,31.77,0,1.6,0,3.3-.12,4.2-1.67,1-1.73,1.46-4-.28-5.17-2-1.3-1.23,1.34-1.9,2.06-1,1.13-2.35.8-3.54.81H63.68c-2.38.09-4.31-.25-5.08-4.25Zm384.92-7.52c1.21-.51,3.66.95,3.28-1.9-.23-1.71-1.27-3.33-3.39-3.27s-3.11,1.69-3.27,3.41c-.25,2.85,2.21,1.16,3.38,1.75Zm-365.08,0c1.2-.34,3.25.64,3-1.74-.19-1.76-1.13-3.4-3.2-3.39a3.31,3.31,0,0,0-3.44,3.18c0,.15,0,.3,0,.45.12,2.34,2.38,1,3.64,1.45Z" transform="translate(-0.86 0)"/><path class="cls-2" d="M385.32,227.88c-4.42-2.35-8.31-5.4-13.07-6.86s-7.06.24-6.47,5.29c.71,6,3.91,10.95,7.37,15.71,1.44,2,3.09,3.8,5.15,6.4-4.19-2.22-7.6-4.2-11.11-5.82-2.47-1.12-5.35-1.9-7.64.15s-1.46,4.94-.69,7.6c1.44,5,4.56,8.94,7.69,13-1.25,1-1.85-.08-2.51-.49-3.42-2.06-7.08-3.59-10.61-.88s-4.14,6.93-3,11.21a87.67,87.67,0,0,1,3.26,26.28c-.89,23.12-8.09,44.53-18.2,65.28-1.22-40.77-2-81.5-6.37-123,5.57,3.8,8.77,8.55,12.42,12.82,2.71-4.19,2.71-4.19,10.18-3.53-1.69-3.33-3.5-6.39-4.86-9.64-4-9.55-1.59-12.91,8.76-12-2.2-4.46-4.33-8.78-6.43-13.11a11.62,11.62,0,0,1-.8-2.23c-.88-3.49-2.65-7.26.67-10.21,3-2.7,6.28-.61,9.34.62.42.18.87.28,2.22.7-2.14-4.13-4.25-7.52-5.7-11.17-2.3-5.8-7.28-11-4.31-18.14.34-.84-.69-1.33-1.37-1.64-7.36-3.36-14.66-6.88-22.92-7.35-2.3-.13-5-.48-6.43,2s.06,4.86,1.28,7.09c2.36,4.28,6.47,7.12,9.79,11.29-4.11.34-7.69-.81-11.2.47-2.13.78-2.09-1.48-2.53-2.62A91.78,91.78,0,0,0,306.71,165c-10.35-14.42-25-20.35-42.14-21-14-.53-27.55.81-39.36,9.5-10.1,7.43-16,17.84-20.2,29.26-1.35,3.67-2.85,5.51-7,4.53-2-.48-4.31-.08-7-.08,2.85-3.06,5.56-5.76,8-8.74,2.16-2.69,4.91-5.79,2.95-9.36s-5.93-2.29-9.1-1.9c-7.15.95-13.64,4-20.06,7.06-.95.43-2.26.77-1.23,2.38,2,3.16.27,6.16-.79,9-2.38,6.54-5.92,12.55-9.24,18.76,1.9,1,3-.58,4.39-1.05,6.07-2.08,9.35.41,8.55,6.83-.77,5.77-3.69,10.73-6.46,15.71-.6,1.07-1.2,2.13-1.9,3.34,10.7-.5,13,3.06,8.6,12.9-1.29,2.85-2.9,5.59-4.57,8.74,3.8.38,8.69-2.42,9.65,4.25,4.2-4.75,7.37-9.63,13-13.42-4,42-4.7,83.27-5.56,124.63-3.28-4.47-5.09-9.5-7-14.39-6.46-16.77-11.48-33.86-12-52A95.9,95.9,0,0,1,171,274.63a22.85,22.85,0,0,0,.72-4.65c.1-8.13-5.38-11.5-12.63-7.92-1.2.59-2.07,1.9-4.05,1.75,3.18-4.22,6.3-8.19,7.84-13,.87-2.74,1.84-5.79-.56-8.05-2.24-2.11-5.17-1.12-7.64-.06-3.14,1.34-6.11,3.07-10.33,5.25,3.86-5.24,7.21-9.31,9.42-14.13a25.12,25.12,0,0,0,2.53-8.11c.34-3.91-2.11-5.82-5.95-4.84-5.33,1.37-9.5,5-14.55,7.31l4-4.65a33,33,0,0,0,6.72-11.9c.68-2.27,1.56-5.55-.54-6.65-5.18-2.77-2.07-5.44-.54-8.13C194.36,111,314.15,105,370.08,185.7c2.69,3.89,4.94,8.1,7.32,12.2,1.38,2.41,3.74,4.68-1.13,6.59-2.57,1-1.61,4.48-.95,6.93C377.07,217.84,381.36,222.73,385.32,227.88Z" transform="translate(-0.86 0)"/><path class="cls-2" d="M219.56,275.71a9.08,9.08,0,0,1-7.27-3.85c-.65-.88-1.46-1.9-.12-2.85,5.5-3.91,6-10.1,7.18-15.91,1.59-7.72,2.11-15.65,4.93-23.11,1.54-4.13,3.69-7.71,8.2-9.16,5.79-1.84,10.51,1.9,8.63,7.53-3.85,11.59-5.38,23.64-8.35,35.39C231,270.7,225.06,275.64,219.56,275.71Z" transform="translate(-0.86 0)"/><path class="cls-2" d="M287.73,220.38c4.47.4,7.51,3.09,9.5,7.23,2.85,5.94,3.8,12.35,4.75,18.75.81,5.32,1.54,10.64,3.36,15.73.75,2.1,1.46,4.44,3.32,5.63,4.18,2.68,1.73,4.54-.59,6.27-3.42,2.56-8.05,2.08-12.28-1.08a16.16,16.16,0,0,1-6.34-9.76c-2.47-11.73-4.44-23.54-8.18-35C279.83,223.65,282.89,220.34,287.73,220.38Z" transform="translate(-0.86 0)"/><path class="cls-2" d="M301.06,200.07c-.06,7.19-4.75,12.79-12,14.44-6.65,1.5-13.86-1.68-16.4-8.13-1.49-3.8-3.58-4.65-7.09-4.25a25.13,25.13,0,0,1-4.75,0c-5.27-.39-9.5-.31-12.22,6.08-2.55,6.09-10.73,8-17.34,5.75-6.35-2.16-10.37-8.55-9.83-15.67a15.14,15.14,0,0,1,12.21-13.35c6.41-1.31,13.68,1.9,16.06,8.05,1.55,4,3.8,4.75,7.44,4.42a28.23,28.23,0,0,1,5.2,0c5.06.44,8.94.15,11.4-5.89s10.19-8.1,16.78-6.12A14.73,14.73,0,0,1,301.06,200.07Zm-64.49,11.48a11.74,11.74,0,0,0,.44-23.48h-.64a11.74,11.74,0,0,0,.2,23.47Zm49.56,0a11.64,11.64,0,1,0-.65,0Z" transform="translate(-0.86 0)"/><path class="cls-2" d="M276.34,223.76a4.75,4.75,0,0,1-1.43,4.06c-3.8,4.2-7.71,8.35-11.33,12.73-1.9,2.33-3.13,1.7-4.75-.17-3.75-4.28-7.6-8.48-11.4-12.67-2-2.13-1.9-4.18,0-6.27,4-4.46,8-8.95,12-13.38.83-.95,1.75-2.09,3.08-.6q6.78,7.59,13.48,15.26A1.6,1.6,0,0,1,276.34,223.76Zm-5-2.52c-3.28-3.73-6-6.73-8.55-9.81-1.2-1.41-2.09-1-3.07.19-2.65,3-5.32,6-8.55,9.62Z" transform="translate(-0.86 0)"/><path class="cls-2" d="M245.65,321.44c.6,1.2,1.95.8,2.85,1.38,5.34,3.36,5.34,5.48-.12,8.62l-19.44,11.21c-.25-1.18-.66-1.9-.45-2.33,1.9-3.7-.13-7.33-.08-11,.05-4.25.06-8.55,0-12.77,0-2.18.2-3.88,3.05-3.21h-.07c3.49,5,9,6.46,14.39,8.21Z" transform="translate(-0.86 0)"/><path class="cls-2" d="M285.65,181.08c-3.61,0-7.24-.13-10.85,0s-3.52-2.29-3.35-4.75c.15-2.27-1.16-5.43,3.13-5.4,7.71,0,15.43,0,23.14,0,4.37,0,2.56,3.47,2.76,5.6s.56,4.6-3,4.46c-3.93-.14-7.87,0-11.81,0Z" transform="translate(-0.86 0)"/><path class="cls-2" d="M236.25,181.08c-3.63,0-7.27-.14-10.9,0-3.32.18-3.7-1.78-3.34-4.21.34-2.26-1.66-5.88,3.08-5.87,7.6,0,15.2,0,22.75,0,4.35,0,3,3.13,3.14,5.37s.46,4.9-3.34,4.75S240.05,181.08,236.25,181.08Z" transform="translate(-0.86 0)"/><path class="cls-2" d="M273.3,325.41a1.9,1.9,0,0,1-.35-2.66,1.71,1.71,0,0,1,.35-.36l-.14.11c7.29-1.45,13.92-4.21,19.21-9.63l-.17.17c1.54.44,1.67,1.6,1.66,3,0,5.07,0,10.13,0,15.2,0,1.9,0,3.74-2.79,2.44L289,332c-4.75-3.41-9.9-6-15.85-6.72Z" transform="translate(-0.86 0)"/><path class="cls-2" d="M261.62,330.06c-6.88,0-8.29-1.14-8.19-6.57.1-5.2,1.47-6.19,8.64-6.18,6,0,7.48,1.24,7.46,6.4S268.2,330.06,261.62,330.06Z" transform="translate(-0.86 0)"/><path class="cls-2" d="M273.3,322.39c-1.55,0-2.64-.51-2.89-2.35s.83-2.49,2.1-3.22c5.7-3.27,11.35-6.6,17.1-9.82,1.14-.65,2.43-2.27,3.69-1.25s.7,2.95.37,4.44a12.15,12.15,0,0,1-1.45,2.85l.17-.17a161.76,161.76,0,0,1-19.21,9.63Z" transform="translate(-0.86 0)"/><path class="cls-2" d="M231.41,313.36h.09c-1.12-1.05-2.55-1.9-2.85-3.56-.28-1.38-.67-3.11.34-4.07s2.32.38,3.32.95c5.7,3.25,11.4,6.65,17.1,9.94,1.73,1,4,1.77,2.9,4.52-1.22,3.09-3.17.19-4.75.48a7.12,7.12,0,0,1-1.9-.17l.15.13Z" transform="translate(-0.86 0)"/><path class="cls-2" d="M289,332l2,1.66a33.58,33.58,0,0,1,2.2,3c.95,1.6,1.18,3.73.15,4.92-1.37,1.57-2.77-.51-4-1.18-5.65-3.12-11.2-6.42-16.8-9.64-1.26-.71-2.54-1.33-2.22-3.16s1.11-2.56,2.92-2.14l-.15-.15Z" transform="translate(-0.86 0)"/><path class="cls-2" d="M268,341.34a6.73,6.73,0,1,1-6.42-6.31A6.72,6.72,0,0,1,268,341.34Z" transform="translate(-0.86 0)"/><path class="cls-2" d="M260.61,365.48a6.93,6.93,0,0,1-6.06-7.24,6.79,6.79,0,0,1,7.33-5.94,6.51,6.51,0,0,1,6,7,1.5,1.5,0,0,1,0,.2A6.8,6.8,0,0,1,260.61,365.48Z" transform="translate(-0.86 0)"/><path class="cls-2" d="M322,199l9.79,10.3C323.46,210.21,323.46,210.21,322,199Z" transform="translate(-0.86 0)"/><path class="cls-2" d="M188.75,209.35l10.15-9.5C198.85,209.37,198.46,209.75,188.75,209.35Z" transform="translate(-0.86 0)"/><path class="cls-2" d="M326.91,221.83a49.2,49.2,0,0,1,8.09,8C327,230.41,326.73,230.11,326.91,221.83Z" transform="translate(-0.86 0)"/><path class="cls-2" d="M187.07,229.77a43.41,43.41,0,0,1,7.75-7.81C195.27,230,194.82,230.42,187.07,229.77Z" transform="translate(-0.86 0)"/><path class="cls-2" d="M293.17,80.39c-.12-6.3,4-11.4,9.36-11.65,5.7-.21,9.5,3.48,9.67,9.28.19,6.8-3.8,11.86-9.5,11.86S293.25,86.11,293.17,80.39Z" transform="translate(-0.86 0)"/><path class="cls-2" d="M379.28,108c-.11,5.88-5.56,11.65-11,11.65a9.5,9.5,0,0,1-9.31-9.4c.12-5.7,5.91-11.58,11.25-11.4C375,98.91,379.35,103.35,379.28,108Z" transform="translate(-0.86 0)"/><path class="cls-2" d="M197.86,429.2c-.09,6.09-5,11.75-10.25,11.72a9.34,9.34,0,0,1-9.42-9.26c0-.18,0-.36,0-.54.23-6.25,5.18-11.71,10.45-11.48A9.51,9.51,0,0,1,197.86,429.2Z" transform="translate(-0.86 0)"/><path class="cls-2" d="M231.08,65.8c-.46-3.24,1.9-2.85,3.65-2.85,3.73-.1,5.52,2,5.49,5.56s-2.52,4.83-5.64,5.07C232.12,73.76,231.06,71.29,231.08,65.8Z" transform="translate(-0.86 0)"/><path class="cls-2" d="M441.16,299.7c-.19,2.76-1,5.32-4.13,5.48s-4.24-2.32-4.32-5.12,1-5.14,4.24-5.15C439.93,294.9,440.84,297.15,441.16,299.7Z" transform="translate(-0.86 0)"/><path class="cls-2" d="M454,299.8c-.08,2.85-.95,5.37-4.07,5.38s-4.16-2.36-4.11-5.25c.06-2.58.78-4.87,3.8-5C452.92,294.73,453.86,297,454,299.8Z" transform="translate(-0.86 0)"/><path class="cls-2" d="M440.29,311.48c.31-2,.25-4.55,3.09-4.46,2.45.07,2.68,2.35,2.66,4.29s.07,4.65-2.69,4.75S440.55,313.56,440.29,311.48Z" transform="translate(-0.86 0)"/><path class="cls-2" d="M75.79,300.09c-.23,2.77-1.23,5.27-4.29,5.15s-4.16-2.53-4.07-5.34,1-5.07,4.28-5S75.56,297.47,75.79,300.09Z" transform="translate(-0.86 0)"/><path class="cls-2" d="M80.39,299.69c.33-2.41,1.06-4.75,4.08-4.79,3.2,0,4.39,2.27,4.33,5.08s-1,5.28-4.26,5.2S80.64,302.49,80.39,299.69Z" transform="translate(-0.86 0)"/><path class="cls-2" d="M81.25,311.5c-.39,2.05-.38,4.75-3.15,4.51-2.62-.19-2.67-2.76-2.66-4.81s.34-4.25,2.74-4.22C80.82,307,81,309.5,81.25,311.5Z" transform="translate(-0.86 0)"/></svg>